<svg width="27" height="21" viewBox="0 0 27 21" fill="none" xmlns="http://www.w3.org/2000/svg">
<path d="M7.40347 0.974901H8.48583V20.2817H5.38503V4.6315L1.46516 5.88937L0.704584 3.16886L7.40347 0.974901ZM12.4539 16.4204L14.6479 14.753C15.935 16.6251 17.4854 17.8245 19.7086 17.8245C21.6978 17.8245 23.0434 16.7714 23.0434 15.1332C23.0434 13.7584 22.2243 13.1733 20.2059 12.2372L18.0705 11.2426C15.2622 9.95551 13.5655 8.46361 13.5655 5.88937C13.5655 2.73007 16.3153 0.653121 19.6501 0.653121C22.3706 0.653121 24.6816 2.028 25.8809 4.10495L23.7162 5.77236C22.6924 4.25121 21.2883 3.43213 19.6501 3.43213C18.0119 3.43213 16.7248 4.25121 16.7248 5.77236C16.8418 7.2935 17.5146 7.55678 19.4161 8.52212L21.5808 9.51671C24.7108 10.9501 26.2027 12.4712 26.2027 15.0162C26.2027 18.3803 23.453 20.6035 19.7379 20.6035C16.5786 20.6035 13.9458 19.0239 12.4539 16.4204Z" fill="white"/>
</svg>
