<svg width="48" height="53" viewBox="0 0 48 53" fill="none" xmlns="http://www.w3.org/2000/svg">
<path d="M42.732 17.9964V8.13919C42.732 2.47279 38.7773 0.465942 35.0587 0.465942H12.9834C9.26481 0.465942 5.31013 2.47279 5.31013 8.13919V17.9964C2.59498 18.7047 0.588135 21.1247 0.588135 24.0759V39.8946C0.588135 44.5576 3.71646 46.3874 6.78576 46.5645V50.5782C6.78576 51.7587 7.73016 52.7031 8.91066 52.7031H11.0946C12.2751 52.7031 13.2195 51.7587 13.2195 50.5782V46.5645H34.8816V50.5782C34.8816 51.7587 35.826 52.7031 37.0065 52.7031H39.1905C40.371 52.7031 41.3154 51.7587 41.3154 50.5782V46.5645C45.8603 46.3284 47.513 43.023 47.513 39.8946V24.0169C47.3949 21.1247 45.3881 18.6456 42.732 17.9964ZM7.43503 8.13919C7.43503 3.29914 10.9175 2.53182 12.9834 2.53182H35.0587C37.1246 2.53182 40.6071 3.24012 40.6071 8.08017V17.7603C37.4197 18.0554 34.8816 20.7115 34.8816 24.0169V25.4925H13.1605V24.0169C13.1605 20.7115 10.6224 18.0554 7.43503 17.7603V8.13919ZM34.8226 27.6174V34.9365H13.1605V27.6174H34.8226ZM11.0946 50.5782H8.91066V46.5645H11.0946V50.5782ZM39.1315 50.5782H36.9475V46.5645H39.1315V50.5782ZM45.3881 39.8946H45.3291C45.3291 41.9605 44.5617 44.4986 40.7251 44.4986H39.1315H36.9475H11.0946H8.91066H7.31698C5.25111 44.4986 2.71303 43.7313 2.71303 39.8946V24.0169C2.71303 21.7149 4.60183 19.8261 6.90381 19.8261C9.20578 19.8261 11.0946 21.7149 11.0946 24.0169V35.999C11.0946 36.5892 11.5668 37.0614 12.157 37.0614H35.9441C36.5344 37.0614 37.0065 36.5892 37.0065 35.999V24.0169C37.0065 21.7149 38.8954 19.8261 41.1973 19.8261C43.4993 19.8261 45.3881 21.7149 45.3881 24.0169V39.8946Z" fill="#FD5B2F"/>
</svg>
