<svg width="23" height="23" viewBox="0 0 23 23" fill="none" xmlns="http://www.w3.org/2000/svg">
<circle cx="7.92639" cy="15.1592" r="7.83557" fill="#FCD25F"/>
<path d="M7.47545 6.40255H15.6934C15.9106 6.40255 16.0869 6.22633 16.0869 6.00914C16.0869 5.7918 15.9106 5.61572 15.6934 5.61572H7.47545C7.25825 5.61572 7.08203 5.7918 7.08203 6.00914C7.08203 6.22633 7.25825 6.40255 7.47545 6.40255Z" fill="black"/>
<path d="M7.47545 9.02535H15.6934C15.9106 9.02535 16.0869 8.84914 16.0869 8.63194C16.0869 8.41461 15.9106 8.23853 15.6934 8.23853H7.47545C7.25825 8.23853 7.08203 8.41461 7.08203 8.63194C7.08203 8.84914 7.25825 9.02535 7.47545 9.02535Z" fill="black"/>
<path d="M15.6934 11.211C15.9106 11.211 16.0869 11.0348 16.0869 10.8176C16.0869 10.6003 15.9106 10.4242 15.6934 10.4242H7.47545C7.25825 10.4242 7.08203 10.6003 7.08203 10.8176C7.08203 11.0348 7.25825 11.211 7.47545 11.211H15.6934Z" fill="black"/>
<path d="M22.0306 14.6156C22.0307 13.8461 21.4435 13.2038 20.677 13.135C19.9107 13.0663 19.2185 13.594 19.0819 14.3513C18.945 15.1085 19.4088 15.8448 20.1509 16.0486V18.2925H18.5336V3.3865C18.5336 3.16917 18.3574 2.99309 18.1402 2.99309H15.9108V0.403791C15.9108 0.186593 15.7346 0.010376 15.5174 0.010376H7.6491C7.4319 0.010376 7.25569 0.186593 7.25569 0.403791V2.99309H5.02634C4.80914 2.99309 4.63292 3.16917 4.63292 3.3865V18.2925H3.01555V16.0486C3.73299 15.8516 4.19443 15.1542 4.09498 14.4169C3.99567 13.6793 3.36621 13.1291 2.62214 13.1291C1.87793 13.1291 1.2486 13.6793 1.14916 14.4169C1.04985 15.1542 1.51115 15.8516 2.22872 16.0486V18.2925H1.52932C1.31212 18.2925 1.13591 18.4686 1.13591 18.686C1.13591 18.9032 1.31212 19.0794 1.52932 19.0794H21.6372C21.8544 19.0794 22.0306 18.9032 22.0306 18.686C22.0306 18.4686 21.8544 18.2925 21.6372 18.2925H20.9378V16.0486C21.5827 15.8707 22.0298 15.2846 22.0306 14.6156ZM1.92273 14.6156C1.92273 14.2293 2.23583 13.9162 2.62214 13.9162C3.00831 13.9162 3.32154 14.2293 3.32154 14.6156C3.32154 15.0018 3.00831 15.315 2.62214 15.315C2.2361 15.3145 1.92328 15.0017 1.92273 14.6156ZM8.04252 0.797205H15.124V2.99309H8.04252V0.797205ZM5.41975 3.77992H17.7467V18.2925H15.4737V17.2085C15.4737 16.9913 15.2975 16.8151 15.0803 16.8151H14.3809V13.0702C14.3809 12.8529 14.2046 12.6768 13.9874 12.6768H9.17905C8.96185 12.6768 8.78563 12.8529 8.78563 13.0702V16.8151H8.08623C7.86903 16.8151 7.69281 16.9911 7.69281 17.2085V18.2925H5.41975V3.77992ZM13.594 16.8151H11.9767V13.4637H13.594V16.8151ZM11.1898 16.8151H9.57246V13.4637H11.1898V16.8151ZM14.6869 17.6019V18.2925H8.47964V17.6019H14.6869ZM19.845 14.6156C19.845 14.2293 20.158 13.9162 20.5444 13.9162C20.9305 13.9162 21.2438 14.2293 21.2438 14.6156C21.2438 15.0018 20.9305 15.315 20.5444 15.315C20.1583 15.3145 19.8455 15.0017 19.845 14.6156Z" fill="black"/>
</svg>
