<svg width="51" height="53" viewBox="0 0 51 53" fill="none" xmlns="http://www.w3.org/2000/svg">
<path d="M50.1257 19.8176V11.7598C50.1221 8.59158 47.5544 6.02391 44.3861 6.02023H42.8748V5.11401C42.8617 2.54266 40.7735 0.465942 38.2026 0.465942C35.6317 0.465942 33.5439 2.54266 33.53 5.11401V6.02023H16.6495V5.11401C16.6364 2.54266 14.5482 0.465942 11.9773 0.465942C9.40632 0.465942 7.31855 2.54266 7.30464 5.11401V6.02023H5.79292C2.62506 6.02391 0.057393 8.59158 0.0537109 11.7598V46.9634C0.057393 50.1317 2.62506 52.6994 5.79292 52.7031H44.3861C47.5544 52.6994 50.1221 50.1317 50.1257 46.9634V20.646C50.2166 20.3773 50.2166 20.0864 50.1257 19.8176ZM38.2026 3.05448C39.3391 3.05611 40.2601 3.97665 40.2613 5.11401V7.86579C40.2527 8.9962 39.333 9.90814 38.2018 9.90814C37.071 9.90814 36.1517 8.9962 36.1427 7.86579V5.11401C36.1439 3.97665 37.0652 3.05571 38.2026 3.05448ZM9.91731 5.11401C9.92631 3.98278 10.8456 3.07084 11.9764 3.07084C13.1077 3.07084 14.0266 3.98278 14.036 5.11401V7.86579C14.0266 8.9962 13.1077 9.90814 11.9764 9.90814C10.8456 9.90814 9.92631 8.9962 9.91731 7.86579V5.11401ZM5.79292 8.63331H7.36846C7.74404 10.886 9.6927 12.5372 11.9764 12.5372C14.2606 12.5372 16.2093 10.886 16.5848 8.63331H33.5942C33.9698 10.886 35.9189 12.5372 38.2026 12.5372C40.4863 12.5372 42.4354 10.886 42.8106 8.63331H44.3861C46.1122 8.63536 47.5106 10.0337 47.5127 11.7598V18.9249H2.66679V11.7603C2.66843 10.0342 4.06764 8.63536 5.79292 8.63331ZM44.3861 50.09H5.79292C4.06764 50.0879 2.66884 48.6895 2.66679 46.9634V21.5379H47.5127V46.9634C47.5106 48.6895 46.1122 50.0879 44.3861 50.09Z" fill="#FD5B2F"/>
<path d="M33.0482 33.1878L28.3506 32.5184L26.2551 28.3556C26.0334 27.9146 25.5821 27.6364 25.0879 27.6364C24.5945 27.6364 24.1432 27.9146 23.9215 28.3556L21.8251 32.5184L17.1283 33.1878C16.6329 33.2581 16.2213 33.6055 16.0683 34.0817C15.9157 34.5579 16.0478 35.08 16.4099 35.4257L19.793 38.659L18.996 43.2171C18.9105 43.706 19.1089 44.201 19.509 44.4948C19.9088 44.7889 20.4406 44.8307 20.8817 44.6036L25.0887 42.4356L29.2957 44.6036C29.7364 44.8307 30.2682 44.7885 30.6675 44.4944C31.0668 44.201 31.2661 43.706 31.181 43.2175L30.3836 38.6594L33.7671 35.4261C34.1287 35.0808 34.2613 34.5583 34.1083 34.0825C33.9553 33.6063 33.5437 33.2586 33.0482 33.1882V33.1878ZM28.0733 37.2512C27.7578 37.5523 27.6138 37.9913 27.6891 38.4209L28.1534 41.0749L25.6868 39.8037C25.3117 39.6102 24.8657 39.6102 24.4897 39.8037L22.0231 41.0749L22.4871 38.4209C22.5627 37.9913 22.4183 37.5523 22.1029 37.2512L20.1604 35.3954L22.8696 35.0096C23.293 34.9495 23.66 34.6856 23.8523 34.3039L25.0879 31.8491L26.3242 34.3039C26.5165 34.6856 26.8835 34.9495 27.3066 35.0096L30.0162 35.3954L28.0733 37.2512Z" fill="#FD5B2F"/>
</svg>
