<svg width="43" height="43" viewBox="0 0 43 43" fill="none" xmlns="http://www.w3.org/2000/svg">
<path fill-rule="evenodd" clip-rule="evenodd" d="M42.1999 21.3508C42.1999 32.8908 32.845 42.2458 21.305 42.2458C9.76505 42.2458 0.410156 32.8908 0.410156 21.3508C0.410156 9.81101 9.76505 0.456055 21.305 0.456055C32.845 0.456055 42.1999 9.81101 42.1999 21.3508Z" fill="white"/>
<path fill-rule="evenodd" clip-rule="evenodd" d="M21.3067 29.3105C16.9175 29.3105 13.3467 25.7397 13.3467 21.3506C13.3467 16.9614 16.9175 13.3906 21.3067 13.3906C25.6958 13.3906 29.2666 16.9614 29.2666 21.3506C29.2666 25.7397 25.6958 29.3105 21.3067 29.3105ZM28.0182 22.4411C27.7856 22.3677 25.9137 21.8094 23.7832 22.1505C24.6725 24.5942 25.0344 26.5845 25.104 26.9981C26.6293 25.9667 27.7152 24.3329 28.0182 22.4411ZM23.963 27.6198C23.8618 27.0233 23.4671 24.9443 22.5125 22.4639C22.4976 22.469 22.4826 22.4738 22.4677 22.479C18.6328 23.8153 17.2562 26.4748 17.1338 26.7249C18.2866 27.6238 19.7354 28.1602 21.3071 28.1602C22.249 28.1602 23.1466 27.9675 23.963 27.6198ZM16.2567 25.9069C16.4107 25.6433 18.2766 22.5537 21.7832 21.4203C21.8718 21.3917 21.9611 21.3647 22.0511 21.3394C21.8804 20.9531 21.6945 20.5664 21.4998 20.1855C18.1045 21.2017 14.8097 21.1592 14.5123 21.1532C14.5102 21.2221 14.5088 21.2913 14.5088 21.3609C14.5088 23.1072 15.1708 24.7015 16.2567 25.9069ZM14.6494 19.9685C14.9535 19.9725 17.7546 19.9847 20.935 19.1401C19.8084 17.1375 18.5934 15.4538 18.4142 15.208C16.5121 16.1052 15.0902 17.8587 14.6494 19.9685ZM19.7129 14.751C19.9008 15.0027 21.1357 16.6843 22.2498 18.7313C24.6675 17.8251 25.691 16.4495 25.8132 16.2753C24.6125 15.21 23.0337 14.562 21.3062 14.562C20.7576 14.562 20.2242 14.6278 19.7129 14.751ZM26.57 17.0615C26.4266 17.2554 25.2873 18.7159 22.7734 19.7423C22.9317 20.0662 23.0833 20.3956 23.2245 20.7271C23.2745 20.8447 23.3233 20.9616 23.371 21.078C25.6333 20.7935 27.8811 21.2494 28.1053 21.2969C28.0903 19.6921 27.5169 18.2185 26.57 17.0615Z" fill="#FD5B2F"/>
</svg>
