<svg width="43" height="43" viewBox="0 0 43 43" fill="none" xmlns="http://www.w3.org/2000/svg">
<path fill-rule="evenodd" clip-rule="evenodd" d="M21.1448 42.2458C32.6848 42.2458 42.0397 32.8908 42.0397 21.3509C42.0397 9.811 32.6848 0.456055 21.1448 0.456055C9.60494 0.456055 0.25 9.811 0.25 21.3509C0.25 32.8908 9.60494 42.2458 21.1448 42.2458Z" fill="white"/>
<path fill-rule="evenodd" clip-rule="evenodd" d="M23.8029 16.6734C23.4767 16.5702 23.1015 16.5014 22.759 16.5014C22.3349 16.5014 21.4215 16.7938 21.4215 17.3615V18.7203H23.5909V21.008H21.4215V27.3206H19.2357V21.008H18.1592V18.7203H19.2357V17.5679C19.2357 15.8306 19.9861 14.3857 21.7966 14.3857C22.4164 14.3857 23.5256 14.4201 24.1291 14.6438L23.8029 16.6734Z" fill="#FD5B2F"/>
</svg>
