<svg width="53" height="53" viewBox="0 0 53 53" fill="none" xmlns="http://www.w3.org/2000/svg">
<path d="M46.9674 10.1343C46.8736 10.0159 46.7756 9.89756 46.6736 9.7792C44.2682 6.91014 41.2723 4.59367 37.8902 2.98784C34.5081 1.38201 30.8194 0.524597 27.0757 0.474105C26.9492 0.470024 26.8268 0.465942 26.7003 0.465942C26.5737 0.465942 26.4513 0.470024 26.3248 0.474105C22.5671 0.525088 18.865 1.38902 15.4728 3.00654C12.0807 4.62406 9.07894 6.95682 6.67389 9.8445C6.60536 9.91814 6.54131 9.99582 6.48208 10.0771C6.47902 10.0833 6.47487 10.0888 6.46983 10.0935C2.66168 14.746 0.580994 20.5732 0.580994 26.5855C0.580994 32.5979 2.66168 38.425 6.46983 43.0776C6.47487 43.0822 6.47902 43.0878 6.48208 43.0939C6.54131 43.1752 6.60536 43.2529 6.67389 43.3265L6.67797 43.3306C9.08273 46.2173 12.0839 48.5492 15.4754 50.166C18.8668 51.7828 22.568 52.6462 26.3248 52.6969C26.5754 52.7051 26.8251 52.7051 27.0757 52.6969C30.8194 52.6464 34.5081 51.789 37.8902 50.1832C41.2723 48.5774 44.2682 46.2609 46.6736 43.3918C46.7756 43.2735 46.8736 43.1551 46.9674 43.0368C50.7528 38.3897 52.8198 32.5793 52.8198 26.5855C52.8198 20.5918 50.7528 14.7814 46.9674 10.1343ZM41.1844 25.8713C41.1439 22.0011 40.5853 18.1537 39.5233 14.4318C41.8483 13.698 44.069 12.6679 46.1308 11.3668C49.393 15.5122 51.2334 20.5982 51.3792 25.8713H41.1844ZM27.4145 1.93109C31.7773 2.38002 35.5728 6.88564 37.7644 13.4808C34.3907 14.4068 30.9126 14.8978 27.4145 14.9419V1.93109ZM25.9861 14.9419C22.4879 14.8978 19.0098 14.4068 15.6362 13.4808C17.8278 6.88564 21.6233 2.38002 25.9861 1.93109V14.9419ZM25.9861 16.3703V25.8713H13.6446C13.6835 22.1426 14.2118 18.4351 15.2158 14.844C18.7257 15.8119 22.3454 16.3249 25.9861 16.3703ZM25.9861 27.2997V36.8007C22.3454 36.8462 18.7257 37.3592 15.2158 38.3271C14.2118 34.7359 13.6835 31.0284 13.6446 27.2997H25.9861ZM25.9861 38.2291V51.24C21.6233 50.791 17.8278 46.2854 15.6362 39.6902C19.0098 38.7643 22.4879 38.2733 25.9861 38.2291ZM27.4145 38.2291C30.9126 38.2733 34.3907 38.7643 37.7644 39.6902C35.5728 46.2854 31.7773 50.791 27.4145 51.24V38.2291ZM27.4145 36.8007V27.2997H39.756C39.717 31.0298 39.1887 34.7386 38.1847 38.3312C34.6758 37.3582 31.0556 36.8438 27.4145 36.8007ZM27.4145 25.8713V16.3703C31.0556 16.3273 34.6758 15.8129 38.1847 14.8399C39.1887 18.4325 39.717 22.1413 39.756 25.8713H27.4145ZM45.2084 10.2567C43.2962 11.4481 41.2423 12.3955 39.0948 13.0768C37.5276 8.41609 35.1728 4.71037 32.369 2.55143C37.3422 3.73141 41.8277 6.42325 45.2084 10.2567ZM21.0315 2.55143C18.2277 4.71037 15.8729 8.41609 14.3057 13.0768C12.1597 12.3934 10.1063 11.4475 8.19209 10.2608C11.5708 6.42401 16.0569 3.73034 21.0315 2.55143ZM7.26974 11.3627C9.33115 12.6665 11.5519 13.6994 13.8772 14.4358C12.8149 18.1563 12.2563 22.0024 12.2161 25.8713H2.02134C2.16716 20.5969 4.00744 15.5097 7.26974 11.3627ZM12.2161 27.2997C12.2563 31.1687 12.8149 35.0147 13.8772 38.7352V38.7393C11.5514 39.4727 9.33044 40.5043 7.26974 41.8083C4.00744 37.6613 2.16716 32.5741 2.02134 27.2997H12.2161ZM8.19209 42.9103C10.1063 41.7235 12.1597 40.7777 14.3057 40.0942C15.8729 44.755 18.2277 48.4607 21.0315 50.6196C16.0569 49.4407 11.5708 46.747 8.19209 42.9103ZM32.369 50.6196C35.1728 48.4607 37.5276 44.755 39.0948 40.0942C41.2423 40.7756 43.2962 41.723 45.2084 42.9143C41.8277 46.7478 37.3422 49.4396 32.369 50.6196ZM46.1308 41.8043C44.069 40.5032 41.8483 39.473 39.5233 38.7393C40.5853 35.0174 41.1439 31.17 41.1844 27.2997H51.3792C51.2334 32.5729 49.393 37.6588 46.1308 41.8043Z" fill="#FD5B2F"/>
</svg>
