<svg width="27" height="21" viewBox="0 0 27 21" fill="none" xmlns="http://www.w3.org/2000/svg">
<circle cx="7.99084" cy="13.0696" r="7.83557" fill="#13DED2"/>
<path d="M20.9559 7.44921C20.9482 7.44921 20.9404 7.44921 20.9328 7.44925C19.0557 7.45717 17.4038 8.43216 16.4551 9.92982H10.734V9.66067V8.66393C10.734 8.26509 10.4095 7.94065 10.0107 7.94065H8.52296C8.12412 7.94065 7.79968 8.26513 7.79968 8.66393V9.66067V9.92982H7.56768C6.69846 9.92982 5.99134 9.22266 5.99134 8.35344V6.01126C5.99134 5.14205 6.69846 4.43489 7.56768 4.43489H22.4269C23.2961 4.43489 24.0032 5.14205 24.0032 6.01126V7.64261C24.0032 7.81173 24.1403 7.94881 24.3094 7.94881C24.4785 7.94881 24.6156 7.81173 24.6156 7.64261V6.01126C24.6156 4.80439 23.6337 3.82249 22.4268 3.82249H19.168V2.45646C19.168 1.10764 18.0706 0.0102539 16.7218 0.0102539H13.2727C11.9239 0.0102539 10.8265 1.10764 10.8265 2.45646V3.82249H7.56768C6.36076 3.82249 5.37891 4.80439 5.37891 6.01126V15.3021C5.37891 16.509 6.36076 17.4909 7.56768 17.4909H16.8636C17.0327 17.4909 17.1698 17.3538 17.1698 17.1847C17.1698 17.0156 17.0327 16.8785 16.8636 16.8785H7.56768C6.69846 16.8785 5.99134 16.1713 5.99134 15.3021V9.86958C6.38981 10.2837 6.94895 10.5422 7.56768 10.5422H7.79968V10.8677C7.79968 11.6733 8.45448 12.3348 9.26685 12.3348C10.0725 12.3348 10.734 11.68 10.734 10.8677V10.5422H16.1219C15.8011 11.2379 15.6334 12.0012 15.6368 12.7901C15.6491 15.7152 18.0326 18.0863 20.9549 18.0862C20.9624 18.0862 20.9701 18.0862 20.9776 18.0862C23.917 18.0738 26.2861 15.6851 26.2737 12.7453C26.2615 9.84962 23.9178 7.44921 20.9559 7.44921ZM17.2953 3.82249H12.6991V2.45646C12.6991 2.14018 12.9564 1.88283 13.2727 1.88283H16.7218C17.0381 1.88283 17.2954 2.14014 17.2954 2.45646V3.82249H17.2953ZM11.4389 2.45646C11.4389 1.4453 12.2616 0.622651 13.2727 0.622651H16.7218C17.733 0.622651 18.5556 1.4453 18.5556 2.45646V3.82249H17.9078V2.45646C17.9078 1.80247 17.3758 1.27043 16.7218 1.27043H13.2727C12.6187 1.27043 12.0867 1.80247 12.0867 2.45646V3.82249H11.4389V2.45646ZM8.52296 8.55304H10.0107C10.0719 8.55304 10.1216 8.60279 10.1216 8.66393V9.35447H8.41208V8.66393C8.41208 8.60275 8.46183 8.55304 8.52296 8.55304ZM8.41208 10.8677V9.96683H10.1216V10.8677C10.1216 11.339 9.73812 11.7224 9.26681 11.7224C8.79549 11.7224 8.41208 11.339 8.41208 10.8677ZM20.9751 17.4738C20.9683 17.4738 20.9617 17.4738 20.9549 17.4738C18.3693 17.4737 16.2601 15.3757 16.2492 12.7875C16.2382 10.1915 18.3283 8.07267 20.9354 8.06165C20.9422 8.06161 20.949 8.06161 20.9558 8.06161C23.5114 8.06161 25.6502 10.1209 25.6613 12.7479C25.6722 15.3488 23.5763 17.4628 20.9751 17.4738Z" fill="black"/>
<path d="M20.956 8.59277C20.9501 8.59277 20.944 8.59277 20.9381 8.59281C18.86 8.60159 17.1083 10.139 16.8214 12.1822C16.7979 12.3497 16.9145 12.5045 17.082 12.528C17.2492 12.5513 17.4043 12.4348 17.4278 12.2674C17.6731 10.5208 19.1712 9.21268 20.9406 9.20521C20.9458 9.20521 20.9509 9.20517 20.9561 9.20517C22.8908 9.20517 24.5099 10.7642 24.5183 12.7529C24.5267 14.7218 22.9399 16.3223 20.9707 16.3305C20.9654 16.3305 20.9602 16.3306 20.9549 16.3306C19.2377 16.3306 17.8491 15.1273 17.4872 13.5859C17.4485 13.4212 17.2835 13.3193 17.1191 13.3578C16.9545 13.3965 16.8524 13.5612 16.891 13.7259C17.3231 15.5656 18.9767 16.943 20.9558 16.943C20.9616 16.943 20.9674 16.943 20.9732 16.943C23.2807 16.9332 25.1405 15.0581 25.1307 12.7503C25.1211 10.454 23.2501 8.59277 20.956 8.59277Z" fill="black"/>
<path d="M20.0029 12.7718C20.0052 13.2952 20.4316 13.7194 20.9545 13.7194H20.9585C21.1136 13.7188 21.2628 13.6811 21.3962 13.611L22.1697 14.3472C22.2928 14.4642 22.4866 14.4585 22.6026 14.3365C22.7192 14.214 22.7144 14.0202 22.5919 13.9036L21.8186 13.1675C21.8765 13.0427 21.9067 12.9056 21.9061 12.7639C21.9043 12.3464 21.6325 11.9923 21.2572 11.8659L21.2504 10.0756C21.2498 9.90681 21.1128 9.77051 20.9443 9.77051C20.9439 9.77051 20.9434 9.77051 20.9431 9.77051C20.774 9.77116 20.6374 9.90877 20.638 10.0779L20.6448 11.8683C20.2704 11.9976 20.0012 12.3542 20.0029 12.7718ZM20.9531 12.4287H20.9545C21.1408 12.4287 21.2929 12.5799 21.2937 12.7664C21.2945 12.9539 21.1434 13.1062 20.9559 13.107C20.9554 13.107 20.955 13.107 20.9545 13.107C20.7682 13.107 20.6161 12.9558 20.6153 12.7693C20.6146 12.5823 20.7661 12.4295 20.9531 12.4287Z" fill="black"/>
</svg>
