<svg width="43" height="43" viewBox="0 0 43 43" fill="none" xmlns="http://www.w3.org/2000/svg">
<path fill-rule="evenodd" clip-rule="evenodd" d="M42.3024 21.3508C42.3024 32.8908 32.9475 42.2458 21.4075 42.2458C9.86759 42.2458 0.512695 32.8908 0.512695 21.3508C0.512695 9.81101 9.86759 0.456055 21.4075 0.456055C32.9475 0.456055 42.3024 9.81101 42.3024 21.3508Z" fill="white"/>
<path fill-rule="evenodd" clip-rule="evenodd" d="M25.5919 27.3206V22.3192C25.5919 21.3706 25.3332 20.3574 24.1906 20.3574C23.5439 20.3574 22.9834 20.8101 22.7678 21.4137C22.6815 21.6508 22.6815 21.888 22.6815 22.1251V27.3206H19.9221C19.9221 24.3025 19.9437 21.3059 19.8574 18.2878H22.2504L22.3797 19.5597H22.4228C23.0049 18.6111 24.0828 18.0938 25.1823 18.0938C27.4675 18.0938 28.3729 19.9262 28.3729 21.9958V27.3206H25.5919ZM15.502 27.321V18.2881H18.2614V27.321H15.502ZM16.9025 14.3857C17.7217 14.3857 18.3469 14.9463 18.3469 15.787C18.3469 16.6494 17.7001 17.1883 16.8594 17.1883C16.0402 17.1883 15.4365 16.6062 15.4365 15.787C15.4365 14.9463 16.0833 14.3857 16.9025 14.3857Z" fill="#FD5B2F"/>
</svg>
