<svg width="23" height="26" viewBox="0 0 23 26" fill="none" xmlns="http://www.w3.org/2000/svg">
<circle cx="7.92639" cy="17.8123" r="7.83557" fill="#1AC8F9"/>
<path d="M17.654 8.18248C18.4315 9.52395 18.8425 11.0569 18.8425 12.6154C18.8425 14.9802 17.9216 17.2035 16.2494 18.8757C14.5772 20.5478 12.3539 21.4688 9.98914 21.4688C7.62432 21.4688 5.40102 20.5478 3.72886 18.8757C2.05666 17.2035 1.13574 14.9802 1.13574 12.6154C1.13574 10.2506 2.05666 8.02728 3.72886 6.35512C5.40106 4.68296 7.62432 3.762 9.98914 3.762C11.5478 3.762 13.0807 4.173 14.4221 4.95056C14.5781 5.04099 14.6313 5.24076 14.5409 5.39673C14.4504 5.55275 14.2506 5.60589 14.0947 5.51549C12.8526 4.79552 11.433 4.415 9.98919 4.415C5.46742 4.41496 1.78871 8.09367 1.78871 12.6154C1.78871 17.1371 5.46742 20.8158 9.98914 20.8158C14.5109 20.8158 18.1896 17.1371 18.1896 12.6154C18.1896 11.1717 17.809 9.75208 17.0891 8.50994C16.9986 8.35396 17.0518 8.1542 17.2078 8.06376C17.3637 7.97333 17.5636 8.02646 17.654 8.18248ZM21.9349 4.73875L19.1645 7.50919C19.1025 7.57122 19.0191 7.60481 18.9336 7.60481C18.9055 7.60481 18.8771 7.60118 18.8492 7.59371L16.1862 6.88014L10.22 12.8463C10.1563 12.91 10.0727 12.9419 9.98914 12.9419C9.90556 12.9419 9.82203 12.91 9.75828 12.8463C9.63079 12.7188 9.63079 12.5121 9.75828 12.3846L15.7244 6.41842L15.0109 3.75543C14.9807 3.64275 15.0129 3.52253 15.0954 3.44005L17.8658 0.669609C17.9483 0.587132 18.0685 0.554932 18.1812 0.585091C18.2939 0.615291 18.3818 0.703277 18.412 0.815954L19.1256 3.47894L21.7886 4.19247C21.9013 4.22267 21.9893 4.31065 22.0195 4.42333C22.0497 4.53601 22.0174 4.65627 21.9349 4.73875ZM21.0734 4.67688L18.7745 4.06089C18.6618 4.03069 18.5738 3.94271 18.5436 3.83003L17.9276 1.53119L15.6903 3.76849L16.3551 6.24942L18.836 6.91418L21.0734 4.67688ZM9.98914 8.04225C10.669 8.04225 11.3233 8.18803 11.934 8.47549C12.0971 8.55222 12.2917 8.48227 12.3684 8.31915C12.4452 8.15599 12.3752 7.96153 12.2121 7.88473C11.5138 7.556 10.7658 7.38929 9.98914 7.38929C7.10746 7.38929 4.76303 9.73371 4.76303 12.6154C4.76303 15.4971 7.10746 17.8415 9.98914 17.8415C12.8708 17.8415 15.2153 15.4971 15.2153 12.6154C15.2153 11.8388 15.0486 11.0909 14.7198 10.3925C14.6431 10.2294 14.4486 10.1594 14.2854 10.2361C14.1222 10.3129 14.0522 10.5074 14.129 10.6705C14.4165 11.2813 14.5623 11.9356 14.5623 12.6154C14.5623 15.137 12.5108 17.1885 9.9891 17.1885C7.46744 17.1885 5.41595 15.137 5.41595 12.6154C5.41595 10.0937 7.46748 8.04225 9.98914 8.04225Z" fill="black"/>
</svg>
