<svg width="43" height="43" viewBox="0 0 43 43" fill="none" xmlns="http://www.w3.org/2000/svg">
<path fill-rule="evenodd" clip-rule="evenodd" d="M21.2464 42.2458C32.7863 42.2458 42.1413 32.8908 42.1413 21.3509C42.1413 9.811 32.7863 0.456055 21.2464 0.456055C9.7065 0.456055 0.351562 9.811 0.351562 21.3509C0.351562 32.8908 9.7065 42.2458 21.2464 42.2458Z" fill="white"/>
<path fill-rule="evenodd" clip-rule="evenodd" d="M24.571 18.7711C24.571 18.6711 24.571 18.7711 24.571 18.7711C24.0617 18.2711 23.4506 18.0711 22.8396 18.1711C23.4506 18.0711 23.7562 17.8711 23.858 17.7711C23.858 17.6711 23.858 17.5711 23.7562 17.5711C23.4506 17.5711 23.1451 17.6711 22.9414 17.7711C23.2469 17.5711 23.3488 17.4711 23.3488 17.3711C23.0432 17.3711 22.7377 17.5711 22.3303 17.8711C22.4322 17.6711 22.534 17.5711 22.4322 17.4711C22.2285 17.5711 22.1266 17.6711 22.0248 17.8711C21.7192 18.1711 21.5155 18.3711 21.4137 18.6711C21.0063 19.3712 20.7007 19.9712 20.497 20.6712H20.3952C20.1915 20.3712 19.8859 20.0712 19.4785 19.8712C19.0711 19.5712 18.5619 19.3712 17.9508 19.0711C17.3397 18.7711 16.7286 18.4711 16.0156 18.2711C16.0156 18.9711 16.3212 19.5712 17.0341 19.9712C16.8304 19.9712 16.5249 19.9712 16.3212 20.0712C16.3212 20.6712 16.8304 21.1712 17.7471 21.3712C17.4415 21.3712 17.136 21.4712 16.8304 21.6712C17.136 22.2713 17.6452 22.4713 18.46 22.4713C18.3582 22.5713 18.1545 22.6713 18.1545 22.6713C18.0526 22.7713 17.9508 22.9713 18.0526 23.1713C18.2563 23.4713 18.46 23.5713 18.9693 23.5713C18.2563 24.2713 17.3397 24.6713 16.3212 24.5713C15.7101 24.5713 14.9971 24.2713 14.2842 23.6713C14.9971 24.6713 16.0156 25.4714 17.2378 25.9714C18.6637 26.3714 20.0896 26.4714 21.4137 26.0714C22.7377 25.6714 23.9599 24.8713 24.8765 23.7713C25.2839 23.1713 25.5895 22.5713 25.6913 21.9712C26.4043 21.9712 26.9135 21.7712 27.2191 21.3712C27.0154 21.4712 26.5061 21.4712 25.7932 21.2712C26.5061 21.1712 27.0154 20.9712 27.1172 20.5712C26.608 20.7712 26.0987 20.7712 25.5895 20.5712C25.4876 19.8712 25.1821 19.2712 24.571 18.7711Z" fill="#FD5B2F"/>
</svg>
