<svg width="65" height="53" viewBox="0 0 65 53" fill="none" xmlns="http://www.w3.org/2000/svg">
<path d="M32.1245 52.7031C34.3859 52.7031 36.2191 50.8699 36.2191 48.6085C36.2191 46.3471 34.3859 44.5139 32.1245 44.5139C29.8631 44.5139 28.0299 46.3471 28.0299 48.6085C28.0299 50.8699 29.8631 52.7031 32.1245 52.7031Z" fill="#FD5B2F"/>
<path d="M63.3462 14.0357C55.1905 5.28528 44.1466 0.466066 32.2477 0.465942C20.3498 0.466066 9.30596 5.28528 1.15015 14.0357C0.215838 15.0382 0.271053 16.6086 1.27361 17.543C2.27629 18.4773 3.8465 18.4222 4.78094 17.4196C11.9874 9.68747 21.742 5.42921 32.2486 5.42909C42.7543 5.42921 52.5089 9.68747 59.7154 17.4196C60.2041 17.9439 60.8668 18.2092 61.5313 18.2092C62.1372 18.2092 62.7445 17.9886 63.2227 17.543C64.2253 16.6084 64.2806 15.0382 63.3462 14.0357Z" fill="#FD5B2F"/>
<path d="M54.2352 24.2839C48.2066 18.2097 40.3985 14.8647 32.249 14.8649C24.0977 14.8651 16.2894 18.2102 10.2626 24.2841C9.2973 25.257 9.30338 26.8282 10.2763 27.7936C11.2492 28.7589 12.8204 28.7528 13.7857 27.7799C18.8736 22.6522 25.4306 19.8282 32.249 19.8281C39.0656 19.8278 45.6227 22.652 50.7124 27.7802C51.1975 28.2689 51.8356 28.5136 52.4738 28.5136C53.1056 28.5136 53.7379 28.2736 54.2221 27.7933C55.1947 26.8279 55.2007 25.2566 54.2352 24.2839Z" fill="#FD5B2F"/>
<path d="M44.3033 34.5618C41.0748 31.3632 36.447 29.3763 32.2256 29.3763C32.2251 29.3763 32.2243 29.3763 32.2238 29.3763H32.045C32.0442 29.3763 32.0439 29.3763 32.0431 29.3763C27.8216 29.3763 23.1934 31.3633 19.965 34.5618C18.9915 35.5264 18.9842 37.0976 19.9488 38.0713C20.4341 38.561 21.0728 38.8063 21.7117 38.8063C22.3429 38.8063 22.9743 38.567 23.4581 38.0877C25.7564 35.8106 29.126 34.3395 32.0434 34.3395C32.0437 34.3395 32.0442 34.3395 32.0446 34.3395H32.2241C32.2246 34.3395 32.2248 34.3395 32.2253 34.3395C35.1422 34.3395 38.5121 35.8107 40.8101 38.0877C41.7837 39.0521 43.3551 39.0452 44.3196 38.0713C45.2843 37.0978 45.277 35.5264 44.3033 34.5618Z" fill="#FD5B2F"/>
</svg>
